<svg width="20" height="20" viewBox="0 0 20 20" fill="none" xmlns="http://www.w3.org/2000/svg">
<line x1="8.74228e-08" y1="19" x2="20" y2="19" stroke="#737373" stroke-width="2"/>
<path d="M9.29289 16.7071C9.68342 17.0976 10.3166 17.0976 10.7071 16.7071L17.0711 10.3431C17.4616 9.95262 17.4616 9.31946 17.0711 8.92893C16.6805 8.53841 16.0474 8.53841 15.6569 8.92893L10 14.5858L4.34315 8.92893C3.95262 8.53841 3.31946 8.53841 2.92893 8.92893C2.53841 9.31946 2.53841 9.95262 2.92893 10.3431L9.29289 16.7071ZM9 4.37114e-08L9 16L11 16L11 -4.37114e-08L9 4.37114e-08Z" fill="#737373"/>
</svg>
