<svg width="21" height="21" viewBox="0 0 21 21" fill="none" xmlns="http://www.w3.org/2000/svg">
<path d="M10.5 0C4.71345 0 0 4.71345 0 10.5C0 16.2866 4.71345 21 10.5 21C16.2866 21 21 16.2866 21 10.5C21 4.71345 16.2866 0 10.5 0ZM10.5 2.1C15.1516 2.1 18.9 5.84837 18.9 10.5C18.9 15.1516 15.1516 18.9 10.5 18.9C5.84837 18.9 2.1 15.1516 2.1 10.5C2.1 5.84837 5.84837 2.1 10.5 2.1ZM15.0076 6.60762L8.4 13.2152L5.99238 10.8076L4.50762 12.2924L8.4 16.1848L16.4924 8.09238L15.0076 6.60762Z" fill="#3ABF57"/>
</svg>
